<svg xmlns="http://www.w3.org/2000/svg" viewBox="0 0 512 512"><path fill="#fcd404" d="M293 .613c-17.847 1.546-35.918 6.308-49.154 12.953C203.11 34.016 176.661 79.46 176.664 129c.002 33.025 6.162 51.068 27.048 79.222 16.147 21.767 20.313 31.272 20.266 46.238-.071 22.927-24.27 34.811-67.73 33.262-16.985-.605-26.238-2.576-40.045-8.528-24.747-10.669-48.649-33.602-63.247-60.681-2.821-5.232-5.476-9.513-5.9-9.513-1.655 0-17.856 17.885-22.368 24.694C8.515 258.1.883 285.236.696 319 .164 415.089 59.805 488.212 153.5 506.347c24.719 4.785 30.586 5.123 89 5.139 54.645.014 55.058-.001 63.94-2.348 31.829-8.411 68.357-32.169 91.281-59.37 25.713-30.51 36.406-61.11 33.313-95.328-2.744-30.353-9.871-45.894-32.075-69.94-13.379-14.489-15.411-19.181-14.654-33.838 1.284-24.884 9.715-41.008 22.495-43.024 22.368-3.527 64.78-24.915 90.609-45.694 14.096-11.339 17.431-18.385 12.328-26.046-3.901-5.857-7.765-7.01-26.537-7.919-18.283-.886-19.183-1.023-30.392-4.63-7.324-2.356-18.066-8.375-20.393-11.426-.596-.783-1.665-4.123-2.374-7.423-8.43-39.225-34.802-74.857-67.541-91.255C343.787 3.872 315.25-1.315 293 .613" fill-rule="evenodd"/></svg>